 
<svg width="500" height="500" viewBox="0 0 500 500" xmlns="http://www.w3.org/2000/svg">
  <rect x="50" y="50" width="400" height="400" rx="80" fill="#C62828"/>
  
  <path d="M120 330 L220 160 L290 280 L350 180 L420 330 Z" fill="white" />
  <path d="M220 160 L240 195 L210 205 Z" fill="#E0E0E0" />
  <path d="M350 180 L370 215 L340 225 Z" fill="#E0E0E0" />

  <g transform="translate(145, 360) rotate(-35)">
    <rect x="0" y="0" width="80" height="45" rx="5" fill="white" />
    <circle cx="0" cy="22.5" r="8" fill="#C62828" />
    <circle cx="80" cy="22.5" r="8" fill="#C62828" />
    <rect x="15" y="8" width="50" height="29" fill="none" stroke="#C62828" stroke-width="2" stroke-dasharray="4,2" />
  </g>

  <path d="M380 230 A 70 70 0 1 0 380 370" fill="none" stroke="white" stroke-width="15" stroke-linecap="round" />
  <circle cx="315" cy="300" r="55" fill="white" />
  <circle cx="315" cy="300" r="48" fill="none" stroke="#1A237E" stroke-width="3" />
  <circle cx="315" cy="275" r="10" fill="#C62828" />
  <circle cx="315" cy="325" r="10" fill="#C62828" />
  <circle cx="290" cy="300" r="10" fill="#C62828" />
  <circle cx="340" cy="300" r="10" fill="#C62828" />
  <circle cx="315" cy="300" r="5" fill="#C62828" />

  <text x="250" y="440" font-family="Arial, sans-serif" font-weight="bold" font-size="34" fill="white" text-anchor="middle" letter-spacing="2">MANAS CINEMA</text>
</svg>
